<svg width="28" height="14" viewBox="0 0 28 14" fill="none" xmlns="http://www.w3.org/2000/svg">
<path d="M20.5488 6.67458C22.0044 6.84495 23.3223 5.80301 23.4926 4.34727C23.6628 2.89195 22.621 1.57394 21.1653 1.40368C19.7098 1.23331 18.3918 2.27526 18.2219 3.73087C18.0512 5.18649 19.0934 6.50432 20.5488 6.67458Z" fill="#31363F"/>
<path d="M8.99224 4.51667L12.9392 3.72848L13.788 5.0935L10.7129 8.01757C11.1877 8.13756 11.6438 8.31616 12.0677 8.54981C12.271 8.66188 12.4615 8.79133 12.6457 8.9164C12.9425 9.11795 13.2217 9.31192 13.4985 9.38791C13.7174 9.448 14.0042 9.45143 14.0224 9.45249C14.4122 9.44912 14.7557 9.34066 15.1063 9.11209C16.0181 8.51758 17.1372 7.90172 18.5252 7.84075C18.6276 7.83625 18.7311 7.83395 18.8329 7.83395C19.2782 7.83395 19.7135 7.87771 20.1299 7.96251C19.8443 7.5065 14.7554 1.33978 14.7554 1.33978L14.6213 1.17934C14.2929 0.78903 13.7433 0.625751 13.2366 0.811444L8.44427 2.5692C7.98223 2.73815 7.69937 3.22309 7.79861 3.72044C7.90837 4.26983 8.44279 4.62631 8.99224 4.51667Z" fill="#31363F"/>
<path d="M26.438 10.6477C25.7847 10.9407 25.2978 11.0601 24.7569 11.0601C24.5439 11.0601 24.3236 11.0411 24.0832 11.0017C23.2825 10.8589 22.7118 10.3966 22.1598 9.94945C21.8204 9.67446 21.4997 9.41467 21.1288 9.22341C20.4575 8.87539 19.6501 8.69153 18.7934 8.69153C18.7045 8.69153 18.6141 8.6936 18.5247 8.69756C17.3532 8.74895 16.4034 9.27013 15.5512 9.82567C15.0513 10.1518 14.4583 10.3082 13.9202 10.3082C13.7579 10.3082 13.4275 10.2726 13.2132 10.2108C12.8017 10.0921 12.449 9.85246 12.1078 9.62088C11.9326 9.50178 11.7671 9.38941 11.5998 9.29722C10.8837 8.90241 10.0568 8.69372 9.20853 8.69372H9.19132C8.00372 8.69762 6.92966 9.06185 6.0854 9.74678C4.9098 10.7009 4.13397 10.9689 3.9128 11.0067C3.9128 11.0067 3.72728 11.0552 3.32893 11.0552C2.56581 11.0552 1.92807 10.8052 1.28796 10.5269C0.838279 10.3313 0.414497 10.2191 0 10.1864C0.0803683 10.2328 0.157307 10.2813 0.231939 10.3325C0.556842 10.559 0.824263 10.8343 1.08275 11.1006C1.22114 11.243 1.35177 11.3776 1.49057 11.5053C2.03399 12.0052 3.15554 12.5961 4.4464 12.5961C5.10141 12.5961 5.73519 12.4537 6.32994 12.1727C6.50493 12.09 6.6753 11.9915 6.85562 11.8874C7.15479 11.7147 7.46556 11.5407 7.80992 11.4247C8.24447 11.2783 8.91899 11.3268 8.91899 11.3268C9.61836 11.3715 10.1421 11.7019 10.5202 11.9848C11.6722 12.8466 12.7591 13.2532 13.9407 13.2647L14.0009 13.2651C14.814 13.2651 15.5578 13.1084 16.2119 12.7994C16.5166 12.6553 16.8067 12.4435 17.1139 12.219C17.6909 11.7976 18.2876 11.3617 19.056 11.3315C19.1017 11.3297 19.1482 11.3287 19.1954 11.3287C19.6161 11.3287 20.2497 11.4018 20.8785 11.7501C21.6354 12.1707 22.5511 12.6005 23.6076 12.6005C23.7611 12.6005 23.9178 12.5916 24.0733 12.574C25.0458 12.4639 25.8678 12.1054 26.5165 11.5083C26.6556 11.3803 26.7865 11.2453 26.9251 11.1025C27.2208 10.7979 27.5264 10.4829 27.9125 10.2437C27.9415 10.2257 27.9706 10.2082 28 10.1913C27.5333 10.2328 27.039 10.3783 26.438 10.6477Z" fill="#31363F"/>
</svg>