<svg width="11" height="16" viewBox="0 0 11 16" fill="none" xmlns="http://www.w3.org/2000/svg">
<path d="M10.1255 4.56055C10.1255 5.25065 9.95299 5.86263 9.60794 6.39648C9.26289 6.93034 8.78763 7.35677 8.18216 7.67578C8.87227 8.00781 9.41914 8.4668 9.82279 9.05273C10.2264 9.63216 10.4283 10.3158 10.4283 11.1035C10.4283 12.3665 9.99857 13.3659 9.13919 14.1016C8.27982 14.8307 7.1112 15.1953 5.63333 15.1953C4.15547 15.1953 2.98359 14.8275 2.11771 14.0918C1.25182 13.3561 0.81888 12.36 0.81888 11.1035C0.81888 10.3158 1.0207 9.62891 1.42435 9.04297C1.82799 8.45703 2.37161 8.0013 3.05521 7.67578C2.44974 7.35677 1.97448 6.93034 1.62943 6.39648C1.29089 5.86263 1.12161 5.25065 1.12161 4.56055C1.12161 3.34961 1.52526 2.38607 2.33255 1.66992C3.13984 0.947266 4.23685 0.585938 5.62357 0.585938C7.00378 0.585938 8.09753 0.94401 8.90482 1.66016C9.71862 2.36979 10.1255 3.33659 10.1255 4.56055ZM7.59622 10.8984C7.59622 10.2799 7.41719 9.78516 7.05911 9.41406C6.70104 9.04297 6.21927 8.85742 5.6138 8.85742C5.01484 8.85742 4.53633 9.04297 4.17826 9.41406C3.82018 9.77865 3.64115 10.2734 3.64115 10.8984C3.64115 11.5039 3.81693 11.9922 4.16849 12.3633C4.52005 12.7344 5.00833 12.9199 5.63333 12.9199C6.24531 12.9199 6.72383 12.7409 7.06888 12.3828C7.42044 12.0247 7.59622 11.5299 7.59622 10.8984ZM7.30326 4.69727C7.30326 4.14388 7.15677 3.70117 6.8638 3.36914C6.57083 3.0306 6.15742 2.86133 5.62357 2.86133C5.09622 2.86133 4.68607 3.02409 4.3931 3.34961C4.10013 3.67513 3.95365 4.12435 3.95365 4.69727C3.95365 5.26367 4.10013 5.7194 4.3931 6.06445C4.68607 6.40951 5.09948 6.58203 5.63333 6.58203C6.16719 6.58203 6.57734 6.40951 6.8638 6.06445C7.15677 5.7194 7.30326 5.26367 7.30326 4.69727Z" fill="#F3F1ED"/>
</svg>
