 <svg width="31" height="30" viewBox="0 0 31 30" fill="none" xmlns="http://www.w3.org/2000/svg">
                        <path d="M10.605 16.3326L10.5 16.4362L10.3845 16.3326C5.397 11.87 2.1 8.91901 2.1 5.92663C2.1 3.85579 3.675 2.30266 5.775 2.30266C7.392 2.30266 8.967 3.33808 9.5235 4.74625H11.4765C12.033 3.33808 13.608 2.30266 15.225 2.30266C17.325 2.30266 18.9 3.85579 18.9 5.92663C18.9 8.91901 15.603 11.87 10.605 16.3326ZM15.225 0.231812C13.398 0.231812 11.6445 1.0705 10.5 2.38549C9.3555 1.0705 7.602 0.231812 5.775 0.231812C2.541 0.231812 0 2.72718 0 5.92663C0 9.83018 3.57 13.0296 8.9775 17.8651L10.5 19.2318L12.0225 17.8651C17.43 13.0296 21 9.83018 21 5.92663C21 2.72718 18.459 0.231812 15.225 0.231812Z" fill="#545776" />
                    </svg>