<svg width="28" height="28" viewBox="0 0 28 28" fill="none" xmlns="http://www.w3.org/2000/svg">
<g clip-path="url(#clip0_139:1024)">
<path d="M20.5488 13.6746C22.0044 13.845 23.3223 12.803 23.4926 11.3473C23.6628 9.89195 22.621 8.57394 21.1653 8.40368C19.7098 8.23331 18.3918 9.27526 18.2219 10.7309C18.0512 12.1865 19.0934 13.5043 20.5488 13.6746Z" fill="#383B58"/>
<path d="M8.99224 11.5167L12.9392 10.7285L13.788 12.0935L10.7129 15.0176C11.1877 15.1376 11.6438 15.3162 12.0677 15.5498C12.271 15.6619 12.4615 15.7913 12.6457 15.9164C12.9425 16.1179 13.2217 16.3119 13.4985 16.3879C13.7174 16.448 14.0042 16.4514 14.0224 16.4525C14.4122 16.4491 14.7557 16.3407 15.1063 16.1121C16.0181 15.5176 17.1372 14.9017 18.5252 14.8407C18.6276 14.8363 18.7311 14.8339 18.8329 14.8339C19.2782 14.8339 19.7135 14.8777 20.1299 14.9625C19.8443 14.5065 14.7554 8.33978 14.7554 8.33978L14.6213 8.17934C14.2929 7.78903 13.7433 7.62575 13.2366 7.81144L8.44427 9.5692C7.98223 9.73815 7.69937 10.2231 7.79861 10.7204C7.90837 11.2698 8.44279 11.6263 8.99224 11.5167Z" fill="#383B58"/>
<path d="M26.438 17.6477C25.7847 17.9407 25.2978 18.0601 24.7569 18.0601C24.5439 18.0601 24.3236 18.0411 24.0832 18.0017C23.2825 17.8589 22.7118 17.3966 22.1598 16.9494C21.8204 16.6745 21.4997 16.4147 21.1288 16.2234C20.4575 15.8754 19.6501 15.6915 18.7934 15.6915C18.7045 15.6915 18.6141 15.6936 18.5247 15.6976C17.3532 15.749 16.4034 16.2701 15.5512 16.8257C15.0513 17.1518 14.4583 17.3082 13.9202 17.3082C13.7579 17.3082 13.4275 17.2726 13.2132 17.2108C12.8017 17.0921 12.449 16.8525 12.1078 16.6209C11.9326 16.5018 11.7671 16.3894 11.5998 16.2972C10.8837 15.9024 10.0568 15.6937 9.20853 15.6937H9.19132C8.00372 15.6976 6.92966 16.0618 6.0854 16.7468C4.9098 17.7009 4.13397 17.9689 3.9128 18.0067C3.9128 18.0067 3.72728 18.0552 3.32893 18.0552C2.56581 18.0552 1.92807 17.8052 1.28796 17.5269C0.838279 17.3313 0.414497 17.2191 0 17.1864C0.0803683 17.2328 0.157307 17.2813 0.231939 17.3325C0.556842 17.559 0.824263 17.8343 1.08275 18.1006C1.22114 18.243 1.35177 18.3776 1.49057 18.5053C2.03399 19.0052 3.15554 19.5961 4.4464 19.5961C5.10141 19.5961 5.73519 19.4537 6.32994 19.1727C6.50493 19.09 6.6753 18.9915 6.85562 18.8874C7.15479 18.7147 7.46556 18.5407 7.80992 18.4247C8.24447 18.2783 8.91899 18.3268 8.91899 18.3268C9.61836 18.3715 10.1421 18.7019 10.5202 18.9848C11.6722 19.8466 12.7591 20.2532 13.9407 20.2647L14.0009 20.2651C14.814 20.2651 15.5578 20.1084 16.2119 19.7994C16.5166 19.6553 16.8067 19.4435 17.1139 19.219C17.6909 18.7976 18.2876 18.3617 19.056 18.3315C19.1017 18.3297 19.1482 18.3287 19.1954 18.3287C19.6161 18.3287 20.2497 18.4018 20.8785 18.7501C21.6354 19.1707 22.5511 19.6005 23.6076 19.6005C23.7611 19.6005 23.9178 19.5916 24.0733 19.574C25.0458 19.4639 25.8678 19.1054 26.5165 18.5083C26.6556 18.3803 26.7865 18.2453 26.9251 18.1025C27.2208 17.7979 27.5264 17.4829 27.9125 17.2437C27.9415 17.2257 27.9706 17.2082 28 17.1913C27.5333 17.2328 27.039 17.3783 26.438 17.6477Z" fill="#383B58"/>
</g>
<defs>
<clipPath id="clip0_139:1024">
<rect width="28" height="28" fill="white"/>
</clipPath>
</defs>
</svg>
