<svg width="18" height="18" viewBox="0 0 18 18" fill="none" xmlns="http://www.w3.org/2000/svg">
<g clip-path="url(#clip0_139:1022)">
<path d="M8.99623 12.7371C8.13592 12.7371 7.43604 13.4347 7.43604 14.2917C7.43604 15.149 8.13592 15.8469 8.99623 15.8469C9.85681 15.8469 10.5567 15.149 10.5567 14.2917C10.5567 13.4347 9.85667 12.7371 8.99623 12.7371Z" fill="#383B58"/>
<path d="M12.803 10.6188C11.7872 9.60365 10.4351 9.04431 8.99632 9.04431C7.56304 9.04431 6.21467 9.59996 5.19919 10.6088C4.78906 11.0169 4.78835 11.6819 5.19749 12.0907C5.39624 12.2898 5.66086 12.3991 5.94252 12.3991C6.2229 12.3991 6.48653 12.2903 6.68499 12.093C7.30297 11.4789 8.1238 11.1406 8.99632 11.1406C9.8721 11.1406 10.6952 11.481 11.3136 12.0988C11.5124 12.2973 11.7768 12.4069 12.0582 12.4069C12.3389 12.4069 12.6024 12.2981 12.801 12.1008C13.2117 11.6926 13.2124 11.028 12.803 10.6188Z" fill="#383B58"/>
<path d="M17.6928 5.74503C15.3705 3.42849 12.2818 2.15308 8.99615 2.15308C5.71492 2.15308 2.62932 3.4255 0.307779 5.73654C-0.102356 6.14469 -0.10264 6.80965 0.307211 7.21851C0.50582 7.41655 0.770016 7.52544 1.05111 7.52544C1.33205 7.52544 1.59597 7.41698 1.79457 7.21908C3.7189 5.30369 6.27639 4.24861 8.99615 4.24861C11.7199 4.24861 14.2799 5.30582 16.2047 7.22632C16.4033 7.4245 16.6679 7.53382 16.9489 7.53382C17.2297 7.53382 17.4936 7.42479 17.692 7.22717C18.1023 6.8187 18.1027 6.15349 17.6928 5.74503Z" fill="#383B58"/>
<path d="M15.186 8.24302C13.5329 6.59382 11.3348 5.68567 8.99632 5.68567C6.66214 5.68567 4.46722 6.59098 2.81561 8.23436C2.61672 8.43211 2.50726 8.69518 2.50684 8.97527C2.50684 9.25508 2.61586 9.51843 2.81447 9.71647C3.01308 9.91465 3.27742 10.024 3.55851 10.024C3.83917 10.024 4.10309 9.91493 4.30198 9.7176C5.55666 8.46931 7.22389 7.78163 8.99632 7.78163C10.7724 7.78163 12.4419 8.47172 13.6975 9.72428C13.8964 9.92274 14.1606 10.0321 14.4418 10.0321C14.7226 10.0321 14.9867 9.92303 15.185 9.72541C15.3836 9.52765 15.4933 9.26459 15.4935 8.9845C15.4938 8.7044 15.3844 8.44134 15.186 8.24302Z" fill="#383B58"/>
</g>
<defs>
<clipPath id="clip0_139:1022">
<rect width="18" height="18" fill="white"/>
</clipPath>
</defs>
</svg>
